<svg width="162" height="82" viewBox="0 0 162 82" fill="none" xmlns="http://www.w3.org/2000/svg">
<path d="M53.5426 23.1476C52.0297 18.3157 49.0428 14.0784 45.0004 11.0297C40.958 7.9809 36.0629 6.27356 31.0014 6.14699C25.9398 6.02041 20.9655 7.48095 16.7758 10.3239C12.5861 13.1668 9.39105 17.2495 7.63859 21.9997C5.88614 26.7499 5.66412 31.9295 7.00366 36.8122C8.34319 41.695 11.1771 46.0361 15.1082 49.2271C19.0392 52.4181 23.8703 54.299 28.9242 54.606C33.978 54.913 39.0012 53.6308 43.2897 50.9392M43.2897 50.9392L30.395 30.395M43.2897 50.9392L56.1906 70.821" stroke="#ffffff" stroke-width="3"/>
<path d="M107.554 42.6388C107.021 40.6493 107.124 38.5428 107.848 36.6147C108.573 34.6865 109.882 33.0334 111.594 31.8871C113.305 30.7407 115.332 30.1586 117.391 30.2224C119.449 30.2861 121.437 30.9925 123.074 32.2425C124.711 33.4926 125.915 35.2235 126.519 37.1928C127.123 39.1621 127.095 41.2709 126.44 43.2236C125.785 45.1764 124.535 46.8752 122.866 48.0818C121.197 49.2885 119.192 49.9425 117.132 49.9522M117.132 49.9522L117.085 40.085M117.132 49.9522L117.032 59.5933" stroke="#ffffff" stroke-width="2.5"/>
<path d="M63.6699 47.3359C63.6699 47.7786 63.4681 48 63.0645 48H62.625C62.2344 48 61.9772 47.8438 61.8535 47.5312C61.7168 47.1732 61.5703 46.6751 61.4141 46.0371C61.1406 46.7207 60.6751 47.2611 60.0176 47.6582C59.3665 48.0488 58.5527 48.2441 57.5762 48.2441C56.3001 48.2441 55.3594 47.847 54.7539 47.0527C54.1484 46.252 53.8457 45.0736 53.8457 43.5176V37.6289C53.8457 37.4466 53.901 37.2936 54.0117 37.1699C54.1289 37.0462 54.2917 36.9844 54.5 36.9844H55.5742C56.0039 36.9844 56.2188 37.1992 56.2188 37.6289V43.4102C56.2188 44.9661 56.5801 45.8646 57.3027 46.1055C57.5371 46.1836 57.8138 46.2227 58.1328 46.2227C58.4583 46.2227 58.7904 46.1478 59.1289 45.998C59.474 45.8483 59.7832 45.6497 60.0566 45.4023C60.6686 44.8359 60.9746 44.1882 60.9746 43.459V37.6289C60.9746 37.4466 61.0299 37.2936 61.1406 37.1699C61.2513 37.0462 61.4271 36.9844 61.668 36.9844H62.6934C62.9212 36.9844 63.0872 37.0462 63.1914 37.1699C63.2956 37.2936 63.3477 37.4466 63.3477 37.6289V43.7324C63.3477 45.1061 63.4453 46.2129 63.6406 47.0527C63.6602 47.1243 63.6699 47.2188 63.6699 47.3359ZM68.3086 35.0996C67.8659 35.0996 67.4883 34.9466 67.1758 34.6406C66.8633 34.3411 66.707 33.9635 66.707 33.5078C66.707 33.0651 66.8633 32.6875 67.1758 32.375C67.4753 32.0755 67.8529 31.9258 68.3086 31.9258C69.0052 31.9258 69.4935 32.2448 69.7734 32.8828C69.8581 33.0716 69.9004 33.2799 69.9004 33.5078C69.9004 33.9635 69.7441 34.3411 69.4316 34.6406C69.1191 34.9466 68.7448 35.0996 68.3086 35.0996ZM69.4512 45.3145C69.4512 45.7767 69.6042 46.0078 69.9102 46.0078C70.0143 46.0078 70.1315 45.9785 70.2617 45.9199C70.5156 45.8092 70.6882 45.7539 70.7793 45.7539C70.916 45.7539 71.0267 45.8483 71.1113 46.0371L71.4141 46.7207C71.4661 46.8314 71.4922 46.9355 71.4922 47.0332C71.4922 47.3132 71.2513 47.5736 70.7695 47.8145C70.3138 48.0488 69.8613 48.166 69.4121 48.166C68.9694 48.166 68.6146 48.1172 68.3477 48.0195C68.0807 47.9219 67.8529 47.7591 67.6641 47.5312C67.2865 47.0625 67.0977 46.3008 67.0977 45.2461V37.6289C67.0977 37.4466 67.1497 37.2936 67.2539 37.1699C67.3581 37.0462 67.4818 36.9844 67.625 36.9844H68.9336C69.0833 36.9844 69.207 37.0462 69.3047 37.1699C69.4023 37.2936 69.4512 37.4466 69.4512 37.6289V45.3145ZM81.1309 41.3301C80.597 41.3301 80.3301 41.0664 80.3301 40.5391C80.3301 39.9336 80.1445 39.4714 79.7734 39.1523C79.4544 38.8724 79.0247 38.7324 78.4844 38.7324C77.9505 38.7324 77.5078 38.8431 77.1562 39.0645C76.8047 39.2858 76.5182 39.569 76.2969 39.9141C75.8672 40.5911 75.6523 41.4049 75.6523 42.3555C75.6523 44.1328 76.1927 45.2982 77.2734 45.8516C77.6641 46.0534 78.097 46.1543 78.5723 46.1543C79.0475 46.1543 79.4382 46.1022 79.7441 45.998C80.0501 45.8939 80.3236 45.7799 80.5645 45.6562C80.8053 45.5326 81.0137 45.4186 81.1895 45.3145C81.3717 45.2103 81.5215 45.1582 81.6387 45.1582C81.873 45.1582 82.0586 45.2656 82.1953 45.4805L82.4102 45.8418C82.5078 46.0111 82.5566 46.1771 82.5566 46.3398C82.5566 46.4961 82.4915 46.6621 82.3613 46.8379C82.2311 47.0072 82.0553 47.1634 81.834 47.3066C81.6191 47.4499 81.3717 47.5801 81.0918 47.6973C80.8118 47.8145 80.5221 47.9154 80.2227 48C78.7904 48.3841 77.4818 48.3255 76.2969 47.8242C74.9688 47.2643 74.054 46.2617 73.5527 44.8164C73.3053 44.1003 73.1816 43.2995 73.1816 42.4141C73.1816 41.5286 73.3118 40.7344 73.5723 40.0312C73.8392 39.3281 74.207 38.7324 74.6758 38.2441C75.6458 37.2415 76.9121 36.7402 78.4746 36.7402C79.8548 36.7402 80.9128 37.1016 81.6484 37.8242C82.2669 38.4427 82.5762 39.2174 82.5762 40.1484C82.5762 40.9362 82.1725 41.3301 81.3652 41.3301H81.1309ZM93.6699 46.0078L94.4902 45.8516C94.7181 45.8516 94.8613 46.0046 94.9199 46.3105L95.0566 47.0137C95.0632 47.0462 95.0664 47.1178 95.0664 47.2285C95.0664 47.3327 95.0241 47.4466 94.9395 47.5703C94.8613 47.694 94.7539 47.7982 94.6172 47.8828C94.3177 48.0716 93.9368 48.166 93.4746 48.166C92.5566 48.166 91.7917 47.7201 91.1797 46.8281C91.069 46.6784 90.9453 46.4831 90.8086 46.2422L89.4609 43.8594L88.875 44.6602C88.0742 45.7865 87.5924 46.6882 87.4297 47.3652C87.3841 47.541 87.319 47.6908 87.2344 47.8145C87.1562 47.9382 87.0163 48 86.8145 48H86.0332C85.89 48 85.7663 47.9414 85.6621 47.8242C85.5645 47.7005 85.5156 47.5475 85.5156 47.3652V31.3008C85.5156 31.125 85.5645 30.9785 85.6621 30.8613C85.7663 30.7441 85.89 30.6855 86.0332 30.6855H87.3809C87.5306 30.6855 87.6543 30.7441 87.752 30.8613C87.8496 30.9785 87.8984 31.125 87.8984 31.3008L87.9277 39.5332C87.9277 40.2493 87.8691 41.0794 87.752 42.0234C87.6413 42.9674 87.5697 43.5859 87.5371 43.8789V43.918C87.5371 43.9701 87.5501 43.9961 87.5762 43.9961C87.6348 43.9961 87.7129 43.9115 87.8105 43.7422C89.1061 41.3919 90.7305 39.1491 92.6836 37.0137C92.8724 36.8118 93.0482 36.7109 93.2109 36.7109C93.4583 36.7109 93.6797 36.8151 93.875 37.0234L94.3145 37.5117C94.5293 37.7721 94.6367 37.9642 94.6367 38.0879C94.6497 38.3092 94.5651 38.5046 94.3828 38.6738L92.625 40.4023C92.026 41.0143 91.4564 41.6556 90.916 42.3262L91.6484 43.5859C92.5729 45.2005 93.2467 46.0078 93.6699 46.0078Z" fill="#ffffff"/>
<path d="M134.18 45.3145C134.18 45.7767 134.342 46.0078 134.668 46.0078C134.772 46.0078 134.906 45.9785 135.068 45.9199C135.368 45.8092 135.55 45.7539 135.615 45.7539C135.765 45.7539 135.882 45.8483 135.967 46.0371L136.27 46.7305C136.309 46.8281 136.328 46.9193 136.328 47.0039C136.328 47.1536 136.204 47.3359 135.957 47.5508C135.462 47.9609 134.814 48.166 134.014 48.166C132.555 48.166 131.826 47.1927 131.826 45.2461V31.3203C131.826 31.1445 131.878 30.9948 131.982 30.8711C132.087 30.7474 132.21 30.6855 132.354 30.6855H133.662C133.812 30.6855 133.936 30.7474 134.033 30.8711C134.131 30.9948 134.18 31.1445 134.18 31.3203V45.3145ZM147.334 47.4824C147.334 47.8275 147.165 48 146.826 48H145.879C145.625 48 145.472 47.9512 145.42 47.8535C145.368 47.7493 145.339 47.6582 145.332 47.5801C145.326 47.4954 145.312 47.3945 145.293 47.2773C145.254 46.9583 145.199 46.6133 145.127 46.2422C144.619 47.1732 143.822 47.7884 142.734 48.0879C142.35 48.1921 141.927 48.2441 141.465 48.2441C141.003 48.2441 140.54 48.166 140.078 48.0098C139.616 47.86 139.206 47.6354 138.848 47.3359C138.04 46.6589 137.637 45.7702 137.637 44.6699C137.637 43.4655 138.079 42.5443 138.965 41.9062C139.694 41.3919 140.632 41.1348 141.777 41.1348C142.923 41.1348 143.893 41.4701 144.688 42.1406C144.707 41.9193 144.717 41.6426 144.717 41.3105C144.717 40.9785 144.652 40.6465 144.521 40.3145C144.391 39.9824 144.206 39.7057 143.965 39.4844C143.47 39.0482 142.78 38.8301 141.895 38.8301C141.1 38.8301 140.293 39.0482 139.473 39.4844C139.316 39.569 139.18 39.6113 139.062 39.6113C138.887 39.6113 138.717 39.4388 138.555 39.0938C138.379 38.7422 138.291 38.4883 138.291 38.332C138.291 38.0456 138.506 37.7689 138.936 37.502C139.756 36.9941 140.853 36.7402 142.227 36.7402C143.477 36.7402 144.512 37.082 145.332 37.7656C146.302 38.5859 146.787 39.7448 146.787 41.2422C146.787 41.9062 146.68 42.7428 146.465 43.752C147.018 45.3275 147.308 46.571 147.334 47.4824ZM140.791 43.3418C140.524 43.5371 140.332 43.7324 140.215 43.9277C140.104 44.123 140.049 44.3542 140.049 44.6211C140.049 44.8815 140.094 45.1159 140.186 45.3242C140.283 45.526 140.417 45.6953 140.586 45.832C140.944 46.112 141.344 46.252 141.787 46.252C142.236 46.252 142.604 46.1999 142.891 46.0957C143.177 45.9915 143.424 45.8581 143.633 45.6953C144.082 45.3438 144.307 44.9727 144.307 44.582C144.268 44.0938 143.997 43.7096 143.496 43.4297C143.047 43.1693 142.516 43.0391 141.904 43.0391C141.429 43.0391 141.058 43.14 140.791 43.3418ZM150.156 37.6875C150.156 37.2188 150.381 36.9844 150.83 36.9844H151.367C151.732 36.9844 151.979 37.1211 152.109 37.3945C152.292 37.7852 152.448 38.2995 152.578 38.9375C153.164 37.8698 154.036 37.1862 155.195 36.8867C155.56 36.7891 156.012 36.7402 156.553 36.7402C157.1 36.7402 157.604 36.8574 158.066 37.0918C158.529 37.3197 158.893 37.6354 159.16 38.0391C159.655 38.7747 159.902 39.8587 159.902 41.291V47.3555C159.902 47.5378 159.844 47.6908 159.727 47.8145C159.609 47.9382 159.437 48 159.209 48H158.252C158.005 48 157.822 47.9382 157.705 47.8145C157.588 47.6908 157.529 47.5378 157.529 47.3555V41.2812C157.529 39.6146 156.917 38.7812 155.693 38.7812C154.977 38.7812 154.323 39.0807 153.73 39.6797C153.099 40.3242 152.783 41.0729 152.783 41.9258V47.3555C152.783 47.5378 152.728 47.6908 152.617 47.8145C152.507 47.9382 152.337 48 152.109 48H151.104C150.876 48 150.703 47.9382 150.586 47.8145C150.469 47.6908 150.41 47.5378 150.41 47.3555V41.3594C150.41 40.0508 150.368 39.1393 150.283 38.625C150.199 38.1042 150.156 37.7917 150.156 37.6875Z" fill="#ffffff"/>
</svg>
