<svg width="1440" height="442" viewBox="0 0 1440 442" fill="none" xmlns="http://www.w3.org/2000/svg">
<path d="M94.2082 512.333C52.6262 512.333 17.1034 497.94 -12.3604 469.152C-41.8242 440.365 -56.5652 405.18 -56.5835 363.598C-56.5835 327.956 -45.8453 296.199 -24.3689 268.325C-2.89252 240.451 25.2096 222.631 59.9373 214.862C71.361 172.824 94.2082 138.781 128.479 112.735C162.75 86.6895 201.59 73.6666 245 73.6666C298.462 73.6666 343.819 92.2917 381.069 129.542C418.319 166.792 436.935 212.139 436.917 265.583C468.446 269.239 494.61 282.838 515.41 306.379C536.211 329.921 546.602 357.447 546.583 388.958C546.583 423.229 534.593 452.364 510.613 476.363C486.632 500.361 457.497 512.352 423.208 512.333H94.2082Z" fill="url(#paint0_linear_357_2)"/>
<path d="M297.792 661.667C256.21 661.667 220.687 647.273 191.223 618.485C161.759 589.698 147.018 554.513 147 512.931C147 477.29 157.738 445.532 179.215 417.658C200.691 389.785 228.793 371.964 263.521 364.196C274.944 322.157 297.792 288.115 332.063 262.069C366.333 236.023 405.174 223 448.583 223C502.046 223 547.402 241.625 584.652 278.875C621.902 316.125 640.518 361.472 640.5 414.917C672.029 418.572 698.194 432.171 718.994 455.713C739.794 479.254 750.185 506.781 750.167 538.292C750.167 572.562 738.176 601.697 714.196 625.696C690.216 649.695 661.081 661.685 626.792 661.667H297.792Z" fill="url(#paint1_linear_357_2)"/>
<path d="M548.792 586.667C507.21 586.667 471.687 572.273 442.223 543.485C412.759 514.698 398.018 479.513 398 437.931C398 402.29 408.738 370.532 430.215 342.658C451.691 314.785 479.793 296.964 514.521 289.196C525.944 247.157 548.792 213.115 583.063 187.069C617.333 161.023 656.174 148 699.583 148C753.046 148 798.402 166.625 835.652 203.875C872.902 241.125 891.518 286.472 891.5 339.917C923.029 343.572 949.194 357.171 969.994 380.713C990.794 404.254 1001.18 431.781 1001.17 463.292C1001.17 497.562 989.176 526.697 965.196 550.696C941.216 574.695 912.081 586.685 877.792 586.667H548.792Z" fill="url(#paint2_linear_357_2)"/>
<path d="M629.25 533C604.639 533 583.613 524.469 566.175 507.406C548.736 490.344 540.011 469.49 540 444.844C540 423.719 546.356 404.896 559.067 388.375C571.778 371.854 588.411 361.292 608.966 356.687C615.727 331.771 629.25 311.594 649.534 296.156C669.818 280.719 692.807 273 718.5 273C750.143 273 776.988 284.039 799.036 306.118C821.083 328.196 832.102 355.073 832.091 386.75C850.752 388.917 866.238 396.977 878.55 410.93C890.861 424.883 897.011 441.198 897 459.875C897 480.188 889.903 497.456 875.71 511.68C861.516 525.904 844.272 533.011 823.977 533H629.25Z" fill="url(#paint3_linear_357_2)"/>
<path d="M940.75 483C901.11 483 867.246 469.252 839.158 441.755C811.07 414.258 797.017 380.651 797 340.933C797 306.889 807.237 276.555 827.71 249.931C848.184 223.307 874.973 206.285 908.08 198.866C918.97 158.711 940.75 126.195 973.42 101.317C1006.09 76.4391 1043.12 64 1084.5 64C1135.47 64 1178.7 81.79 1214.21 117.37C1249.73 152.95 1267.47 196.264 1267.45 247.312C1297.51 250.804 1322.45 263.793 1342.28 286.279C1362.11 308.766 1372.02 335.058 1372 365.156C1372 397.891 1360.57 425.719 1337.71 448.642C1314.85 471.565 1287.07 483.017 1254.39 483H940.75Z" fill="url(#paint4_linear_357_2)"/>
<path d="M1227.75 419C1188.11 419 1154.25 405.252 1126.16 377.755C1098.07 350.258 1084.02 316.651 1084 276.933C1084 242.889 1094.24 212.555 1114.71 185.931C1135.18 159.307 1161.97 142.285 1195.08 134.866C1205.97 94.7114 1227.75 62.1953 1260.42 37.3172C1293.09 12.4391 1330.12 0 1371.5 0C1422.47 0 1465.7 17.79 1501.21 53.3701C1536.73 88.9502 1554.47 132.264 1554.45 183.312C1584.51 186.804 1609.45 199.793 1629.28 222.279C1649.11 244.766 1659.02 271.058 1659 301.156C1659 333.891 1647.57 361.719 1624.71 384.642C1601.85 407.565 1574.07 419.017 1541.39 419H1227.75Z" fill="url(#paint5_linear_357_2)"/>
<path d="M-58.5 442C-84.8348 442 -107.332 432.878 -125.992 414.634C-144.653 396.391 -153.988 374.093 -154 347.741C-154 325.153 -147.199 305.027 -133.598 287.363C-119.996 269.698 -102.198 258.404 -80.2045 253.481C-72.9697 226.84 -58.5 205.266 -36.7955 188.759C-15.0909 172.253 9.50757 164 37 164C70.8591 164 99.5843 175.803 123.176 199.41C146.767 223.017 158.557 251.755 158.545 285.625C178.514 287.942 195.084 296.56 208.258 311.479C221.431 326.398 228.012 343.843 228 363.812C228 385.531 220.406 403.995 205.219 419.204C190.031 434.413 171.58 442.012 149.864 442H-58.5Z" fill="url(#paint6_linear_357_2)"/>
<path d="M25.5 610C-0.834846 610 -23.3323 600.878 -41.9925 582.634C-60.6526 564.391 -69.9884 542.093 -70 515.741C-70 493.153 -63.1992 473.027 -49.5977 455.363C-35.9962 437.698 -18.1985 426.404 3.79546 421.481C11.0303 394.84 25.5 373.266 47.2045 356.759C68.9091 340.253 93.5076 332 121 332C154.859 332 183.584 343.803 207.176 367.41C230.767 391.017 242.557 419.755 242.545 453.625C262.514 455.942 279.084 464.56 292.258 479.479C305.431 494.398 312.012 511.843 312 531.812C312 553.531 304.406 571.995 289.219 587.204C274.031 602.413 255.58 610.012 233.864 610H25.5Z" fill="url(#paint7_linear_357_2)"/>
<path d="M1033.25 463C1021.6 463 1011.65 458.964 1003.39 450.892C995.135 442.82 991.005 432.955 991 421.295C991 411.302 994.009 402.397 1000.03 394.581C1006.04 386.766 1013.92 381.769 1023.65 379.591C1026.85 367.803 1033.25 358.258 1042.85 350.955C1052.45 343.652 1063.34 340 1075.5 340C1090.48 340 1103.19 345.222 1113.62 355.667C1124.06 366.112 1129.28 378.827 1129.27 393.812C1138.11 394.838 1145.44 398.651 1151.27 405.252C1157.09 411.853 1160.01 419.571 1160 428.406C1160 438.016 1156.64 446.185 1149.92 452.914C1143.2 459.643 1135.04 463.005 1125.43 463H1033.25Z" fill="url(#paint8_linear_357_2)"/>
<path d="M1216.5 476C1195.96 476 1178.41 468.88 1163.85 454.639C1149.29 440.398 1142.01 422.993 1142 402.423C1142 384.792 1147.31 369.082 1157.92 355.294C1168.53 341.505 1182.41 332.69 1199.57 328.847C1205.21 308.051 1216.5 291.211 1233.43 278.327C1250.36 265.442 1269.55 259 1291 259C1317.41 259 1339.82 268.213 1358.23 286.64C1376.63 305.067 1385.83 327.5 1385.82 353.938C1401.4 355.746 1414.32 362.473 1424.6 374.118C1434.88 385.764 1440.01 399.381 1440 414.969C1440 431.922 1434.08 446.334 1422.23 458.206C1410.38 470.078 1395.99 476.009 1379.05 476H1216.5Z" fill="url(#paint9_linear_357_2)"/>
<path d="M94.2082 512.333C52.6262 512.333 17.1034 497.94 -12.3604 469.152C-41.8242 440.365 -56.5652 405.18 -56.5835 363.598C-56.5835 327.956 -45.8453 296.199 -24.3689 268.325C-2.89252 240.451 25.2096 222.631 59.9373 214.862C71.361 172.824 94.2082 138.781 128.479 112.735C162.75 86.6895 201.59 73.6666 245 73.6666C298.462 73.6666 343.819 92.2917 381.069 129.542C418.319 166.792 436.935 212.139 436.917 265.583C468.446 269.239 494.61 282.838 515.41 306.379C536.211 329.921 546.602 357.447 546.583 388.958C546.583 423.229 534.593 452.364 510.613 476.363C486.632 500.361 457.497 512.352 423.208 512.333H94.2082Z" fill="url(#paint10_linear_357_2)"/>
<path d="M297.792 661.667C256.21 661.667 220.687 647.273 191.223 618.485C161.759 589.698 147.018 554.513 147 512.931C147 477.29 157.738 445.532 179.215 417.658C200.691 389.785 228.793 371.964 263.521 364.196C274.944 322.157 297.792 288.115 332.063 262.069C366.333 236.023 405.174 223 448.583 223C502.046 223 547.402 241.625 584.652 278.875C621.902 316.125 640.518 361.472 640.5 414.917C672.029 418.572 698.194 432.171 718.994 455.713C739.794 479.254 750.185 506.781 750.167 538.292C750.167 572.562 738.176 601.697 714.196 625.696C690.216 649.695 661.081 661.685 626.792 661.667H297.792Z" fill="url(#paint11_linear_357_2)"/>
<path d="M548.792 586.667C507.21 586.667 471.687 572.273 442.223 543.485C412.759 514.698 398.018 479.513 398 437.931C398 402.29 408.738 370.532 430.215 342.658C451.691 314.785 479.793 296.964 514.521 289.196C525.944 247.157 548.792 213.115 583.063 187.069C617.333 161.023 656.174 148 699.583 148C753.046 148 798.402 166.625 835.652 203.875C872.902 241.125 891.518 286.472 891.5 339.917C923.029 343.572 949.194 357.171 969.994 380.713C990.794 404.254 1001.18 431.781 1001.17 463.292C1001.17 497.562 989.176 526.697 965.196 550.696C941.216 574.695 912.081 586.685 877.792 586.667H548.792Z" fill="url(#paint12_linear_357_2)"/>
<path d="M629.25 533C604.639 533 583.613 524.469 566.175 507.406C548.736 490.344 540.011 469.49 540 444.844C540 423.719 546.356 404.896 559.067 388.375C571.778 371.854 588.411 361.292 608.966 356.687C615.727 331.771 629.25 311.594 649.534 296.156C669.818 280.719 692.807 273 718.5 273C750.143 273 776.988 284.039 799.036 306.118C821.083 328.196 832.102 355.073 832.091 386.75C850.752 388.917 866.238 396.977 878.55 410.93C890.861 424.883 897.011 441.198 897 459.875C897 480.188 889.903 497.456 875.71 511.68C861.516 525.904 844.272 533.011 823.977 533H629.25Z" fill="url(#paint13_linear_357_2)"/>
<path d="M940.75 483C901.11 483 867.246 469.252 839.158 441.755C811.07 414.258 797.017 380.651 797 340.933C797 306.889 807.237 276.555 827.71 249.931C848.184 223.307 874.973 206.285 908.08 198.866C918.97 158.711 940.75 126.195 973.42 101.317C1006.09 76.4391 1043.12 64 1084.5 64C1135.47 64 1178.7 81.79 1214.21 117.37C1249.73 152.95 1267.47 196.264 1267.45 247.312C1297.51 250.804 1322.45 263.793 1342.28 286.279C1362.11 308.766 1372.02 335.058 1372 365.156C1372 397.891 1360.57 425.719 1337.71 448.642C1314.85 471.565 1287.07 483.017 1254.39 483H940.75Z" fill="url(#paint14_linear_357_2)"/>
<path d="M1227.75 419C1188.11 419 1154.25 405.252 1126.16 377.755C1098.07 350.258 1084.02 316.651 1084 276.933C1084 242.889 1094.24 212.555 1114.71 185.931C1135.18 159.307 1161.97 142.285 1195.08 134.866C1205.97 94.7114 1227.75 62.1953 1260.42 37.3172C1293.09 12.4391 1330.12 0 1371.5 0C1422.47 0 1465.7 17.79 1501.21 53.3701C1536.73 88.9502 1554.47 132.264 1554.45 183.312C1584.51 186.804 1609.45 199.793 1629.28 222.279C1649.11 244.766 1659.02 271.058 1659 301.156C1659 333.891 1647.57 361.719 1624.71 384.642C1601.85 407.565 1574.07 419.017 1541.39 419H1227.75Z" fill="url(#paint15_linear_357_2)"/>
<path d="M-58.5 442C-84.8348 442 -107.332 432.878 -125.992 414.634C-144.653 396.391 -153.988 374.093 -154 347.741C-154 325.153 -147.199 305.027 -133.598 287.363C-119.996 269.698 -102.198 258.404 -80.2045 253.481C-72.9697 226.84 -58.5 205.266 -36.7955 188.759C-15.0909 172.253 9.50757 164 37 164C70.8591 164 99.5843 175.803 123.176 199.41C146.767 223.017 158.557 251.755 158.545 285.625C178.514 287.942 195.084 296.56 208.258 311.479C221.431 326.398 228.012 343.843 228 363.812C228 385.531 220.406 403.995 205.219 419.204C190.031 434.413 171.58 442.012 149.864 442H-58.5Z" fill="url(#paint16_linear_357_2)"/>
<path d="M25.5 610C-0.834846 610 -23.3323 600.878 -41.9925 582.634C-60.6526 564.391 -69.9884 542.093 -70 515.741C-70 493.153 -63.1992 473.027 -49.5977 455.363C-35.9962 437.698 -18.1985 426.404 3.79546 421.481C11.0303 394.84 25.5 373.266 47.2045 356.759C68.9091 340.253 93.5076 332 121 332C154.859 332 183.584 343.803 207.176 367.41C230.767 391.017 242.557 419.755 242.545 453.625C262.514 455.942 279.084 464.56 292.258 479.479C305.431 494.398 312.012 511.843 312 531.812C312 553.531 304.406 571.995 289.219 587.204C274.031 602.413 255.58 610.012 233.864 610H25.5Z" fill="url(#paint17_linear_357_2)"/>
<path d="M1033.25 463C1021.6 463 1011.65 458.964 1003.39 450.892C995.135 442.82 991.005 432.955 991 421.295C991 411.302 994.009 402.397 1000.03 394.581C1006.04 386.766 1013.92 381.769 1023.65 379.591C1026.85 367.803 1033.25 358.258 1042.85 350.955C1052.45 343.652 1063.34 340 1075.5 340C1090.48 340 1103.19 345.222 1113.62 355.667C1124.06 366.112 1129.28 378.827 1129.27 393.812C1138.11 394.838 1145.44 398.651 1151.27 405.252C1157.09 411.853 1160.01 419.571 1160 428.406C1160 438.016 1156.64 446.185 1149.92 452.914C1143.2 459.643 1135.04 463.005 1125.43 463H1033.25Z" fill="url(#paint18_linear_357_2)"/>
<path d="M1216.5 476C1195.96 476 1178.41 468.88 1163.85 454.639C1149.29 440.398 1142.01 422.993 1142 402.423C1142 384.792 1147.31 369.082 1157.92 355.294C1168.53 341.505 1182.41 332.69 1199.57 328.847C1205.21 308.051 1216.5 291.211 1233.43 278.327C1250.36 265.442 1269.55 259 1291 259C1317.41 259 1339.82 268.213 1358.23 286.64C1376.63 305.067 1385.83 327.5 1385.82 353.938C1401.4 355.746 1414.32 362.473 1424.6 374.118C1434.88 385.764 1440.01 399.381 1440 414.969C1440 431.922 1434.08 446.334 1422.23 458.206C1410.38 470.078 1395.99 476.009 1379.05 476H1216.5Z" fill="url(#paint19_linear_357_2)"/>
<path d="M94.2082 512.333C52.6262 512.333 17.1034 497.94 -12.3604 469.152C-41.8242 440.365 -56.5652 405.18 -56.5835 363.598C-56.5835 327.956 -45.8453 296.199 -24.3689 268.325C-2.89252 240.451 25.2096 222.631 59.9373 214.862C71.361 172.824 94.2082 138.781 128.479 112.735C162.75 86.6895 201.59 73.6666 245 73.6666C298.462 73.6666 343.819 92.2917 381.069 129.542C418.319 166.792 436.935 212.139 436.917 265.583C468.446 269.239 494.61 282.838 515.41 306.379C536.211 329.921 546.602 357.447 546.583 388.958C546.583 423.229 534.593 452.364 510.613 476.363C486.632 500.361 457.497 512.352 423.208 512.333H94.2082Z" fill="url(#paint20_linear_357_2)"/>
<path d="M297.792 661.667C256.21 661.667 220.687 647.273 191.223 618.485C161.759 589.698 147.018 554.513 147 512.931C147 477.29 157.738 445.532 179.215 417.658C200.691 389.785 228.793 371.964 263.521 364.196C274.944 322.157 297.792 288.115 332.063 262.069C366.333 236.023 405.174 223 448.583 223C502.046 223 547.402 241.625 584.652 278.875C621.902 316.125 640.518 361.472 640.5 414.917C672.029 418.572 698.194 432.171 718.994 455.713C739.794 479.254 750.185 506.781 750.167 538.292C750.167 572.562 738.176 601.697 714.196 625.696C690.216 649.695 661.081 661.685 626.792 661.667H297.792Z" fill="url(#paint21_linear_357_2)"/>
<path d="M548.792 586.667C507.21 586.667 471.687 572.273 442.223 543.485C412.759 514.698 398.018 479.513 398 437.931C398 402.29 408.738 370.532 430.215 342.658C451.691 314.785 479.793 296.964 514.521 289.196C525.944 247.157 548.792 213.115 583.063 187.069C617.333 161.023 656.174 148 699.583 148C753.046 148 798.402 166.625 835.652 203.875C872.902 241.125 891.518 286.472 891.5 339.917C923.029 343.572 949.194 357.171 969.994 380.713C990.794 404.254 1001.18 431.781 1001.17 463.292C1001.17 497.562 989.176 526.697 965.196 550.696C941.216 574.695 912.081 586.685 877.792 586.667H548.792Z" fill="url(#paint22_linear_357_2)"/>
<path d="M629.25 533C604.639 533 583.613 524.469 566.175 507.406C548.736 490.344 540.011 469.49 540 444.844C540 423.719 546.356 404.896 559.067 388.375C571.778 371.854 588.411 361.292 608.966 356.687C615.727 331.771 629.25 311.594 649.534 296.156C669.818 280.719 692.807 273 718.5 273C750.143 273 776.988 284.039 799.036 306.118C821.083 328.196 832.102 355.073 832.091 386.75C850.752 388.917 866.238 396.977 878.55 410.93C890.861 424.883 897.011 441.198 897 459.875C897 480.188 889.903 497.456 875.71 511.68C861.516 525.904 844.272 533.011 823.977 533H629.25Z" fill="url(#paint23_linear_357_2)"/>
<path d="M940.75 483C901.11 483 867.246 469.252 839.158 441.755C811.07 414.258 797.017 380.651 797 340.933C797 306.889 807.237 276.555 827.71 249.931C848.184 223.307 874.973 206.285 908.08 198.866C918.97 158.711 940.75 126.195 973.42 101.317C1006.09 76.4391 1043.12 64 1084.5 64C1135.47 64 1178.7 81.79 1214.21 117.37C1249.73 152.95 1267.47 196.264 1267.45 247.312C1297.51 250.804 1322.45 263.793 1342.28 286.279C1362.11 308.766 1372.02 335.058 1372 365.156C1372 397.891 1360.57 425.719 1337.71 448.642C1314.85 471.565 1287.07 483.017 1254.39 483H940.75Z" fill="url(#paint24_linear_357_2)"/>
<path d="M1227.75 419C1188.11 419 1154.25 405.252 1126.16 377.755C1098.07 350.258 1084.02 316.651 1084 276.933C1084 242.889 1094.24 212.555 1114.71 185.931C1135.18 159.307 1161.97 142.285 1195.08 134.866C1205.97 94.7114 1227.75 62.1953 1260.42 37.3172C1293.09 12.4391 1330.12 0 1371.5 0C1422.47 0 1465.7 17.79 1501.21 53.3701C1536.73 88.9502 1554.47 132.264 1554.45 183.312C1584.51 186.804 1609.45 199.793 1629.28 222.279C1649.11 244.766 1659.02 271.058 1659 301.156C1659 333.891 1647.57 361.719 1624.71 384.642C1601.85 407.565 1574.07 419.017 1541.39 419H1227.75Z" fill="url(#paint25_linear_357_2)"/>
<path d="M-58.5 442C-84.8348 442 -107.332 432.878 -125.992 414.634C-144.653 396.391 -153.988 374.093 -154 347.741C-154 325.153 -147.199 305.027 -133.598 287.363C-119.996 269.698 -102.198 258.404 -80.2045 253.481C-72.9697 226.84 -58.5 205.266 -36.7955 188.759C-15.0909 172.253 9.50757 164 37 164C70.8591 164 99.5843 175.803 123.176 199.41C146.767 223.017 158.557 251.755 158.545 285.625C178.514 287.942 195.084 296.56 208.258 311.479C221.431 326.398 228.012 343.843 228 363.812C228 385.531 220.406 403.995 205.219 419.204C190.031 434.413 171.58 442.012 149.864 442H-58.5Z" fill="url(#paint26_linear_357_2)"/>
<path d="M25.5 610C-0.834846 610 -23.3323 600.878 -41.9925 582.634C-60.6526 564.391 -69.9884 542.093 -70 515.741C-70 493.153 -63.1992 473.027 -49.5977 455.363C-35.9962 437.698 -18.1985 426.404 3.79546 421.481C11.0303 394.84 25.5 373.266 47.2045 356.759C68.9091 340.253 93.5076 332 121 332C154.859 332 183.584 343.803 207.176 367.41C230.767 391.017 242.557 419.755 242.545 453.625C262.514 455.942 279.084 464.56 292.258 479.479C305.431 494.398 312.012 511.843 312 531.812C312 553.531 304.406 571.995 289.219 587.204C274.031 602.413 255.58 610.012 233.864 610H25.5Z" fill="url(#paint27_linear_357_2)"/>
<path d="M1033.25 463C1021.6 463 1011.65 458.964 1003.39 450.892C995.135 442.82 991.005 432.955 991 421.295C991 411.302 994.009 402.397 1000.03 394.581C1006.04 386.766 1013.92 381.769 1023.65 379.591C1026.85 367.803 1033.25 358.258 1042.85 350.955C1052.45 343.652 1063.34 340 1075.5 340C1090.48 340 1103.19 345.222 1113.62 355.667C1124.06 366.112 1129.28 378.827 1129.27 393.812C1138.11 394.838 1145.44 398.651 1151.27 405.252C1157.09 411.853 1160.01 419.571 1160 428.406C1160 438.016 1156.64 446.185 1149.92 452.914C1143.2 459.643 1135.04 463.005 1125.43 463H1033.25Z" fill="url(#paint28_linear_357_2)"/>
<path d="M1216.5 476C1195.96 476 1178.41 468.88 1163.85 454.639C1149.29 440.398 1142.01 422.993 1142 402.423C1142 384.792 1147.31 369.082 1157.92 355.294C1168.53 341.505 1182.41 332.69 1199.57 328.847C1205.21 308.051 1216.5 291.211 1233.43 278.327C1250.36 265.442 1269.55 259 1291 259C1317.41 259 1339.82 268.213 1358.23 286.64C1376.63 305.067 1385.83 327.5 1385.82 353.938C1401.4 355.746 1414.32 362.473 1424.6 374.118C1434.88 385.764 1440.01 399.381 1440 414.969C1440 431.922 1434.08 446.334 1422.23 458.206C1410.38 470.078 1395.99 476.009 1379.05 476H1216.5Z" fill="url(#paint29_linear_357_2)"/>
<defs>
<linearGradient id="paint0_linear_357_2" x1="245" y1="73.6666" x2="245" y2="512.333" gradientUnits="userSpaceOnUse">
<stop offset="0.205" stop-color="#C2DBFF"/>
<stop offset="1" stop-color="white" stop-opacity="0"/>
</linearGradient>
<linearGradient id="paint1_linear_357_2" x1="448.583" y1="223" x2="448.583" y2="661.667" gradientUnits="userSpaceOnUse">
<stop offset="0.205" stop-color="#C2DBFF"/>
<stop offset="1" stop-color="white" stop-opacity="0"/>
</linearGradient>
<linearGradient id="paint2_linear_357_2" x1="699.583" y1="148" x2="699.583" y2="586.667" gradientUnits="userSpaceOnUse">
<stop offset="0.205" stop-color="#C2DBFF"/>
<stop offset="1" stop-color="white" stop-opacity="0"/>
</linearGradient>
<linearGradient id="paint3_linear_357_2" x1="718.5" y1="273" x2="718.5" y2="533" gradientUnits="userSpaceOnUse">
<stop offset="0.205" stop-color="#C2DBFF"/>
<stop offset="1" stop-color="white" stop-opacity="0"/>
</linearGradient>
<linearGradient id="paint4_linear_357_2" x1="1084.5" y1="64" x2="1084.5" y2="483" gradientUnits="userSpaceOnUse">
<stop offset="0.205" stop-color="#C2DBFF"/>
<stop offset="1" stop-color="white" stop-opacity="0"/>
</linearGradient>
<linearGradient id="paint5_linear_357_2" x1="1371.5" y1="0" x2="1371.5" y2="419" gradientUnits="userSpaceOnUse">
<stop offset="0.205" stop-color="#C2DBFF"/>
<stop offset="1" stop-color="white" stop-opacity="0"/>
</linearGradient>
<linearGradient id="paint6_linear_357_2" x1="37" y1="164" x2="37" y2="442" gradientUnits="userSpaceOnUse">
<stop offset="0.205" stop-color="#C2DBFF"/>
<stop offset="1" stop-color="white" stop-opacity="0"/>
</linearGradient>
<linearGradient id="paint7_linear_357_2" x1="121" y1="332" x2="121" y2="610" gradientUnits="userSpaceOnUse">
<stop offset="0.205" stop-color="#C2DBFF"/>
<stop offset="1" stop-color="white" stop-opacity="0"/>
</linearGradient>
<linearGradient id="paint8_linear_357_2" x1="1075.5" y1="340" x2="1075.5" y2="463" gradientUnits="userSpaceOnUse">
<stop offset="0.205" stop-color="#C2DBFF"/>
<stop offset="1" stop-color="white" stop-opacity="0"/>
</linearGradient>
<linearGradient id="paint9_linear_357_2" x1="1291" y1="259" x2="1291" y2="476" gradientUnits="userSpaceOnUse">
<stop offset="0.205" stop-color="#C2DBFF"/>
<stop offset="1" stop-color="white" stop-opacity="0"/>
</linearGradient>
<linearGradient id="paint10_linear_357_2" x1="245" y1="73.6666" x2="245" y2="512.333" gradientUnits="userSpaceOnUse">
<stop offset="0.205" stop-color="#C2DBFF"/>
<stop offset="1" stop-color="white" stop-opacity="0"/>
</linearGradient>
<linearGradient id="paint11_linear_357_2" x1="448.583" y1="223" x2="448.583" y2="661.667" gradientUnits="userSpaceOnUse">
<stop offset="0.205" stop-color="#C2DBFF"/>
<stop offset="1" stop-color="white" stop-opacity="0"/>
</linearGradient>
<linearGradient id="paint12_linear_357_2" x1="699.583" y1="148" x2="699.583" y2="586.667" gradientUnits="userSpaceOnUse">
<stop offset="0.205" stop-color="#C2DBFF"/>
<stop offset="1" stop-color="white" stop-opacity="0"/>
</linearGradient>
<linearGradient id="paint13_linear_357_2" x1="718.5" y1="273" x2="718.5" y2="533" gradientUnits="userSpaceOnUse">
<stop offset="0.205" stop-color="#C2DBFF"/>
<stop offset="1" stop-color="white" stop-opacity="0"/>
</linearGradient>
<linearGradient id="paint14_linear_357_2" x1="1084.5" y1="64" x2="1084.5" y2="483" gradientUnits="userSpaceOnUse">
<stop offset="0.205" stop-color="#C2DBFF"/>
<stop offset="1" stop-color="white" stop-opacity="0"/>
</linearGradient>
<linearGradient id="paint15_linear_357_2" x1="1371.5" y1="0" x2="1371.5" y2="419" gradientUnits="userSpaceOnUse">
<stop offset="0.205" stop-color="#C2DBFF"/>
<stop offset="1" stop-color="white" stop-opacity="0"/>
</linearGradient>
<linearGradient id="paint16_linear_357_2" x1="37" y1="164" x2="37" y2="442" gradientUnits="userSpaceOnUse">
<stop offset="0.205" stop-color="#C2DBFF"/>
<stop offset="1" stop-color="white" stop-opacity="0"/>
</linearGradient>
<linearGradient id="paint17_linear_357_2" x1="121" y1="332" x2="121" y2="610" gradientUnits="userSpaceOnUse">
<stop offset="0.205" stop-color="#C2DBFF"/>
<stop offset="1" stop-color="white" stop-opacity="0"/>
</linearGradient>
<linearGradient id="paint18_linear_357_2" x1="1075.5" y1="340" x2="1075.5" y2="463" gradientUnits="userSpaceOnUse">
<stop offset="0.205" stop-color="#C2DBFF"/>
<stop offset="1" stop-color="white" stop-opacity="0"/>
</linearGradient>
<linearGradient id="paint19_linear_357_2" x1="1291" y1="259" x2="1291" y2="476" gradientUnits="userSpaceOnUse">
<stop offset="0.205" stop-color="#C2DBFF"/>
<stop offset="1" stop-color="white" stop-opacity="0"/>
</linearGradient>
<linearGradient id="paint20_linear_357_2" x1="245" y1="73.6666" x2="245" y2="512.333" gradientUnits="userSpaceOnUse">
<stop offset="0.205" stop-color="#C2DBFF"/>
<stop offset="1" stop-color="white" stop-opacity="0"/>
</linearGradient>
<linearGradient id="paint21_linear_357_2" x1="448.583" y1="223" x2="448.583" y2="661.667" gradientUnits="userSpaceOnUse">
<stop offset="0.205" stop-color="#C2DBFF"/>
<stop offset="1" stop-color="white" stop-opacity="0"/>
</linearGradient>
<linearGradient id="paint22_linear_357_2" x1="699.583" y1="148" x2="699.583" y2="586.667" gradientUnits="userSpaceOnUse">
<stop offset="0.205" stop-color="#C2DBFF"/>
<stop offset="1" stop-color="white" stop-opacity="0"/>
</linearGradient>
<linearGradient id="paint23_linear_357_2" x1="718.5" y1="273" x2="718.5" y2="533" gradientUnits="userSpaceOnUse">
<stop offset="0.205" stop-color="#C2DBFF"/>
<stop offset="1" stop-color="white" stop-opacity="0"/>
</linearGradient>
<linearGradient id="paint24_linear_357_2" x1="1084.5" y1="64" x2="1084.5" y2="483" gradientUnits="userSpaceOnUse">
<stop offset="0.205" stop-color="#C2DBFF"/>
<stop offset="1" stop-color="white" stop-opacity="0"/>
</linearGradient>
<linearGradient id="paint25_linear_357_2" x1="1371.5" y1="0" x2="1371.5" y2="419" gradientUnits="userSpaceOnUse">
<stop offset="0.205" stop-color="#C2DBFF"/>
<stop offset="1" stop-color="white" stop-opacity="0"/>
</linearGradient>
<linearGradient id="paint26_linear_357_2" x1="37" y1="164" x2="37" y2="442" gradientUnits="userSpaceOnUse">
<stop offset="0.205" stop-color="#C2DBFF"/>
<stop offset="1" stop-color="white" stop-opacity="0"/>
</linearGradient>
<linearGradient id="paint27_linear_357_2" x1="121" y1="332" x2="121" y2="610" gradientUnits="userSpaceOnUse">
<stop offset="0.205" stop-color="#C2DBFF"/>
<stop offset="1" stop-color="white" stop-opacity="0"/>
</linearGradient>
<linearGradient id="paint28_linear_357_2" x1="1075.5" y1="340" x2="1075.5" y2="463" gradientUnits="userSpaceOnUse">
<stop offset="0.205" stop-color="#C2DBFF"/>
<stop offset="1" stop-color="white" stop-opacity="0"/>
</linearGradient>
<linearGradient id="paint29_linear_357_2" x1="1291" y1="259" x2="1291" y2="476" gradientUnits="userSpaceOnUse">
<stop offset="0.205" stop-color="#C2DBFF"/>
<stop offset="1" stop-color="white" stop-opacity="0"/>
</linearGradient>
</defs>
</svg>
